<?xml version="1.0" encoding="iso-8859-1"?>
<!-- Generator: Adobe Illustrator 19.2.1, SVG Export Plug-In . SVG Version: 6.00 Build 0)  -->
<svg version="1.1" xmlns="http://www.w3.org/2000/svg" xmlns:xlink="http://www.w3.org/1999/xlink" x="0px" y="0px"
	 viewBox="0 0 32 32" style="enable-background:new 0 0 32 32;" xml:space="preserve">
<g id="Layer_5">
	<polygon style="fill:#95CC29;" points="14,8 7.999,18 14,18 14,24 19.999,14 14,14 	"/>
	<path style="fill:#666666;" d="M2.999,26h24C28.656,25.999,30,24.657,30,23v-3h0.999c0.263,0,0.522-0.107,0.708-0.293
		C31.893,19.521,32,19.263,32,19v-6c0-0.263-0.107-0.521-0.294-0.707C31.52,12.107,31.262,12,30.999,12H30V9
		c0-1.657-1.344-2.999-3.001-3h-24C1.341,6.001,0,7.343,0,9v14C0,24.657,1.341,25.999,2.999,26z M2,9c0-0.552,0.447-0.999,0.999-1
		h24C27.55,8.001,28,8.448,28,9v4v6v4c0,0.552-0.45,0.999-1.001,1h-24C2.447,23.999,2,23.552,2,23V9z"/>
	<rect style="fill:none;" width="32" height="32"/>
</g>
<g id="Layer_1">
</g>
</svg>
