<?xml version="1.0" encoding="iso-8859-1"?>
<!-- Generator: Adobe Illustrator 19.2.1, SVG Export Plug-In . SVG Version: 6.00 Build 0)  -->
<svg version="1.1" xmlns="http://www.w3.org/2000/svg" xmlns:xlink="http://www.w3.org/1999/xlink" x="0px" y="0px"
	 viewBox="0 0 32 32" style="enable-background:new 0 0 32 32;" xml:space="preserve">
<g id="Layer_31">
	<path style="fill:#95CC29;" d="M24.999,18c-3.866,0-7,3.134-7,7s3.134,7,7,7s7-3.134,7-7S28.864,18,24.999,18z M29.706,23.707l-5,5
		C24.519,28.893,24.262,29,23.999,29s-0.521-0.107-0.707-0.293l-3-3c-0.391-0.391-0.391-1.024,0-1.414
		c0.391-0.391,1.024-0.391,1.414,0l2.293,2.293l4.293-4.293c0.391-0.391,1.024-0.391,1.414,0S30.096,23.317,29.706,23.707z"/>
	<path style="fill:#666666;" d="M2.999,32H18v-2H2.999C2.447,29.999,2,29.552,2,29V7c0-0.552,0.447-0.999,0.999-1h1.184
		C4.071,6.314,4,6.647,4,7v2v1h18V7c0-0.353-0.074-0.686-0.185-1h1.184C23.55,6.001,24,6.448,24,7v9h2V7
		c0-1.657-1.344-2.999-3.001-3h-4h-1.101c-0.464-2.282-2.48-4-4.899-4c-2.419,0-4.436,1.718-4.899,4H6.999h-4
		C1.341,4.001,0,5.343,0,7v22C0,30.657,1.341,31.999,2.999,32z M6,7c0-0.552,0.447-0.999,0.999-1h2H10V5c0-1.657,1.343-2.997,3-3
		c1.656,0.003,3,1.344,3,3v1h0.999h2C19.55,6.001,20,6.448,20,7v1H6V7z"/>
	<circle style="fill:#666666;" cx="12.999" cy="5" r="1"/>
	<rect style="fill:none;" width="32" height="32"/>
</g>
<g id="Layer_1">
</g>
</svg>
