<?xml version="1.0" encoding="iso-8859-1"?>
<!-- Generator: Adobe Illustrator 19.2.1, SVG Export Plug-In . SVG Version: 6.00 Build 0)  -->
<svg version="1.1" xmlns="http://www.w3.org/2000/svg" xmlns:xlink="http://www.w3.org/1999/xlink" x="0px" y="0px"
	 viewBox="0 0 32 32" style="enable-background:new 0 0 32 32;" xml:space="preserve">
<g id="Layer_6">
	<path style="fill:#95CC29;" d="M30,24v-2.715c0-2.615-1.882-4.999-4.484-5.259C22.523,15.726,20,18.068,20,21v3c-1,0-2,0.895-2,2v4
		c0,1.105,0.894,2,1.999,2h10C31.103,32,32,31.105,32,30v-4C32,24.895,31,24,30,24z M26,29c0,0.55-0.45,1-1,1s-1-0.45-1-1v-2
		c0-0.55,0.45-1,1-1s1,0.45,1,1V29z M22,24v-3c0-1.654,1.346-3,3-3s3,1.346,3,3v3H22z"/>
	<path style="fill:#666666;" d="M0.999,32H16v-2H2V7.414L7.413,2H24v12h2V1c0-0.263-0.107-0.521-0.294-0.707
		C25.52,0.107,25.262,0,24.999,0h-18C6.735,0,6.478,0.107,6.291,0.293l-5.999,6C0.106,6.479,0,6.737,0,7v24
		c0,0.263,0.106,0.521,0.292,0.707C0.478,31.893,0.735,32,0.999,32z"/>
	<path style="fill:#666666;" d="M12,9V7c0-0.552-0.448-1-1-1s-1,0.448-1,1v2c0,0.552,0.448,1,1,1S12,9.552,12,9z"/>
	<path style="fill:#666666;" d="M16,9V7c0-0.552-0.448-1-1-1s-1,0.448-1,1v2c0,0.552,0.448,1,1,1S16,9.552,16,9z"/>
	<path style="fill:#666666;" d="M19,10c0.552,0,1-0.448,1-1V7c0-0.552-0.448-1-1-1s-1,0.448-1,1v2C18,9.552,18.448,10,19,10z"/>
	<path style="fill:#666666;" d="M7,10c0.552,0,1-0.448,1-1V7c0-0.552-0.448-1-1-1S6,6.448,6,7v2C6,9.552,6.448,10,7,10z"/>
	<path style="fill:#666666;" d="M18,18v-2H6.999c-0.263,0-0.52,0.107-0.706,0.293C6.106,16.479,6,16.737,6,17v8
		c0,0.263,0.106,0.521,0.292,0.707C6.478,25.893,6.735,26,6.999,26H16v-2H8v-6H18z"/>
	<rect style="fill:none;" width="32" height="32"/>
</g>
<g id="Layer_1">
</g>
</svg>
